<svg xmlns="http://www.w3.org/2000/svg" width="20" height="20" fill="none" viewBox="0 0 20 20"><path fill="#f9512e" d="M19.942 9.993a4.997 4.997 0 0 1-4.94-4.994 4.997 4.997 0 0 1-4.995-4.94 5.16 5.16 0 0 0-3.114.5l-2.7 1.376a5.17 5.17 0 0 0-2.257 2.258L.565 6.884a5.2 5.2 0 0 0-.5 3.162l.47 2.98a5.18 5.18 0 0 0 1.452 2.85l2.14 2.138a5.16 5.16 0 0 0 2.84 1.448l2.996.474a5.15 5.15 0 0 0 3.146-.498l2.7-1.375a5.17 5.17 0 0 0 2.257-2.258l1.372-2.691a5.2 5.2 0 0 0 .504-3.121M6.875 14.374A1.25 1.25 0 1 1 6.875 11.875 1.25 1.25 0 0 1 6.875 14.374m1.25-6.25A1.25 1.25 0 1 1 8.125 5.625 1.25 1.25 0 0 1 8.125 8.124m6.25 5a1.25 1.25 0 1 1 .00039937940693324236-2.5A1.25 1.25 0 0 1 14.375 13.124"/></svg>